<svg width="34" height="40" viewBox="0 0 34 40" fill="none" xmlns="http://www.w3.org/2000/svg">
<path d="M4.16667 39.3333C3.15833 39.3333 2.29544 38.9745 1.578 38.2571C0.860556 37.5396 0.501222 36.6761 0.5 35.6666V13.6666C0.5 12.6583 0.859333 11.7954 1.578 11.0779C2.29667 10.3605 3.15956 10.0011 4.16667 9.99992H7.83333C7.83333 7.46381 8.72739 5.30231 10.5155 3.51542C12.3036 1.72853 14.4651 0.834475 17 0.833253C19.5349 0.832031 21.697 1.72609 23.4863 3.51542C25.2757 5.30475 26.1691 7.46625 26.1667 9.99992H29.8333C30.8417 9.99992 31.7052 10.3593 32.4238 11.0779C33.1425 11.7966 33.5012 12.6595 33.5 13.6666V35.6666C33.5 36.6749 33.1413 37.5384 32.4238 38.2571C31.7064 38.9758 30.8429 39.3345 29.8333 39.3333H4.16667ZM4.16667 35.6666H29.8333V13.6666H4.16667V35.6666ZM11.5 9.99992H22.5C22.5 8.47214 21.9653 7.17353 20.8958 6.10409C19.8264 5.03464 18.5278 4.49992 17 4.49992C15.4722 4.49992 14.1736 5.03464 13.1042 6.10409C12.0347 7.17353 11.5 8.47214 11.5 9.99992ZM16.9542 24.6666C19.2153 24.6666 21.2625 23.918 23.0958 22.4208C24.9292 20.9235 25.8306 19.243 25.8 17.3791C25.8 16.8596 25.6319 16.4166 25.2958 16.0499C24.9597 15.6833 24.5319 15.4999 24.0125 15.4999C23.5847 15.4999 23.2028 15.6374 22.8667 15.9124C22.5306 16.1874 22.2861 16.5999 22.1333 17.1499C21.7972 18.311 21.1403 19.243 20.1625 19.9458C19.1847 20.6485 18.1153 20.9999 16.9542 20.9999C15.7931 20.9999 14.7163 20.6485 13.7238 19.9458C12.7314 19.243 12.0818 18.311 11.775 17.1499C11.6222 16.5694 11.3931 16.1495 11.0875 15.8904C10.7819 15.6313 10.4153 15.5011 9.9875 15.4999C9.46806 15.4999 9.03294 15.6833 8.68217 16.0499C8.33139 16.4166 8.15539 16.8596 8.15417 17.3791C8.15417 19.243 9.05556 20.9235 10.8583 22.4208C12.6611 23.918 14.6931 24.6666 16.9542 24.6666Z" fill="white"/>
</svg>
