<svg width="33" height="30" viewBox="0 0 33 30" fill="none" xmlns="http://www.w3.org/2000/svg">
<path d="M16.5 29.028C16.1208 29.028 15.7352 28.9603 15.343 28.8249C14.9508 28.6895 14.6052 28.4728 14.3062 28.1749L11.5031 25.6155C8.63229 22.9884 6.03879 20.3819 3.72263 17.796C1.40646 15.2101 0.248917 12.3593 0.250001 9.24365C0.250001 6.69782 1.10313 4.57178 2.80938 2.86553C4.51563 1.15928 6.64167 0.306152 9.1875 0.306152C10.6229 0.306152 11.9771 0.610569 13.25 1.2194C14.5229 1.82824 15.6062 2.66132 16.5 3.71865C17.3937 2.6624 18.4771 1.82986 19.75 1.22103C21.0229 0.612194 22.3771 0.307236 23.8125 0.306152C26.3583 0.306152 28.4844 1.15928 30.1906 2.86553C31.8969 4.57178 32.75 6.69782 32.75 9.24365C32.75 12.3582 31.599 15.2155 29.2969 17.8155C26.9948 20.4155 24.3813 23.0291 21.4563 25.6562L18.6938 28.1749C18.3958 28.4728 18.0508 28.6895 17.6586 28.8249C17.2665 28.9603 16.8803 29.028 16.5 29.028ZM14.9563 6.96865C14.1708 5.85824 13.3313 5.01161 12.4375 4.42878C11.5438 3.84594 10.4604 3.55507 9.1875 3.55615C7.5625 3.55615 6.20833 4.09782 5.125 5.18115C4.04167 6.26449 3.5 7.61865 3.5 9.24365C3.5 10.652 4.00104 12.1486 5.00313 13.7335C6.00521 15.3184 7.20392 16.8552 8.59925 18.3437C9.99458 19.8322 11.43 21.2269 12.9055 22.528C14.381 23.8291 15.5792 24.8989 16.5 25.7374C17.4208 24.8978 18.6195 23.828 20.0961 22.528C21.5727 21.228 23.0081 19.8332 24.4024 18.3437C25.7966 16.8541 26.9948 15.3174 27.9969 13.7335C28.999 12.1497 29.5 10.6531 29.5 9.24365C29.5 7.61865 28.9583 6.26449 27.875 5.18115C26.7917 4.09782 25.4375 3.55615 23.8125 3.55615C22.5396 3.55615 21.4562 3.84757 20.5625 4.4304C19.6688 5.01324 18.8292 5.85932 18.0437 6.96865C17.8542 7.23949 17.624 7.44261 17.3531 7.57803C17.0823 7.71344 16.7979 7.78115 16.5 7.78115C16.2021 7.78115 15.9177 7.71344 15.6469 7.57803C15.376 7.44261 15.1458 7.23949 14.9563 6.96865Z" fill="white"/>
</svg>
